<svg xmlns="http://www.w3.org/2000/svg" width="1040" height="480" viewBox="0 0 1040 480">
<style>text { font-family: -apple-system, BlinkMacSystemFont, sans-serif; fill: #172033; } .title { font-size: 17px; font-weight: 650; } .label { font-size: 12px; fill: #42526e; } .edge { stroke: #8aa0c2; stroke-width: 1.4; opacity: .7; } .node { fill: #f7faff; stroke: #375a90; stroke-width: 1.3; } .node-text { font-size: 11px; text-anchor: middle; } </style>
<defs><marker id="arrow" markerWidth="7" markerHeight="7" refX="6" refY="3" orient="auto"><path d="M0,0 L0,6 L6,3 z" fill="#8aa0c2"/></marker></defs><text class="title" x="30" y="30">Варианты и самые длинные переходы</text><text class="label" x="30" y="56">Слева: частота варианта. Справа: p95 ожидания между действиями, seconds.</text><text class="label" x="30" y="84">Top variants</text><text class="label" x="570" y="84">Top p95 waits</text><text class="label" x="30" y="112">A_SUBMITTED → A_PARTLYSUBMITTED → A_DECLINED</text><rect x="30" y="119" width="380.0" height="13" rx="3" fill="#3b82f6"/><text class="label" x="420" y="131">3429</text><text class="label" x="30" y="154">A_SUBMITTED → A_PARTLYSUBMITTED → W_Afhandelen leads …</text><rect x="30" y="161" width="207.5" height="13" rx="3" fill="#3b82f6"/><text class="label" x="420" y="173">1872</text><text class="label" x="30" y="196">A_SUBMITTED → A_PARTLYSUBMITTED → W_Afhandelen leads …</text><rect x="30" y="203" width="30.0" height="13" rx="3" fill="#3b82f6"/><text class="label" x="420" y="215">271</text><text class="label" x="30" y="238">A_SUBMITTED → A_PARTLYSUBMITTED → W_Afhandelen leads …</text><rect x="30" y="245" width="23.2" height="13" rx="3" fill="#3b82f6"/><text class="label" x="420" y="257">209</text><text class="label" x="30" y="280">A_SUBMITTED → A_PARTLYSUBMITTED → A_PREACCEPTED …</text><rect x="30" y="287" width="17.7" height="13" rx="3" fill="#3b82f6"/><text class="label" x="420" y="299">160</text><text class="label" x="30" y="322">A_SUBMITTED → A_PARTLYSUBMITTED → A_PREACCEPTED …</text><rect x="30" y="329" width="14.8" height="13" rx="3" fill="#3b82f6"/><text class="label" x="420" y="341">134</text><text class="label" x="30" y="364">A_SUBMITTED → A_PARTLYSUBMITTED → W_Afhandelen leads …</text><rect x="30" y="371" width="14.0" height="13" rx="3" fill="#3b82f6"/><text class="label" x="420" y="383">126</text><text class="label" x="30" y="406">A_SUBMITTED → A_PARTLYSUBMITTED → A_PREACCEPTED …</text><rect x="30" y="413" width="10.3" height="13" rx="3" fill="#3b82f6"/><text class="label" x="420" y="425">93</text><text class="label" x="570" y="112">W_Completeren aanvraag → W_Nabellen offertes</text><rect x="570" y="119" width="370.0" height="13" rx="3" fill="#e58e26"/><text class="label" x="950" y="131">704616</text><text class="label" x="570" y="154">W_Nabellen offertes → W_Nabellen offertes</text><rect x="570" y="161" width="348.9" height="13" rx="3" fill="#e58e26"/><text class="label" x="950" y="173">664419</text><text class="label" x="570" y="196">W_Nabellen offertes → W_Valideren aanvraag</text><rect x="570" y="203" width="270.5" height="13" rx="3" fill="#e58e26"/><text class="label" x="950" y="215">515102</text><text class="label" x="570" y="238">W_Beoordelen fraude → W_Beoordelen fraude</text><rect x="570" y="245" width="131.1" height="13" rx="3" fill="#e58e26"/><text class="label" x="950" y="257">249603</text><text class="label" x="570" y="280">W_Nabellen incomplete dossiers → W_Nabellen incomplete dossiers</text><rect x="570" y="287" width="94.7" height="13" rx="3" fill="#e58e26"/><text class="label" x="950" y="299">180305</text><text class="label" x="570" y="322">W_Completeren aanvraag → W_Completeren aanvraag</text><rect x="570" y="329" width="86.4" height="13" rx="3" fill="#e58e26"/><text class="label" x="950" y="341">164482</text><text class="label" x="570" y="364">W_Valideren aanvraag → W_Valideren aanvraag</text><rect x="570" y="371" width="46.2" height="13" rx="3" fill="#e58e26"/><text class="label" x="950" y="383">87889</text><text class="label" x="570" y="406">W_Afhandelen leads → W_Afhandelen leads</text><rect x="570" y="413" width="36.4" height="13" rx="3" fill="#e58e26"/><text class="label" x="950" y="425">69277</text></svg>
